<?xml version="1.0" encoding="utf-8"?>
<!-- Generator: Adobe Illustrator 23.0.0, SVG Export Plug-In . SVG Version: 6.00 Build 0)  -->
<svg version="1.1" id="Layer_1" xmlns="http://www.w3.org/2000/svg" xmlns:xlink="http://www.w3.org/1999/xlink" x="0px" y="0px"
	 viewBox="0 0 265 390" style="enable-background:new 0 0 265 390;" xml:space="preserve">
<style type="text/css">
	.st0{fill:none;stroke:url(#SVGID_1_);stroke-width:0.9827;stroke-miterlimit:10;}
	.st1{fill:none;stroke:url(#SVGID_2_);stroke-width:0.4846;stroke-miterlimit:10;}
	.st2{fill:none;stroke:url(#SVGID_3_);stroke-width:2.9078;stroke-miterlimit:10;}
	.st3{fill:url(#SVGID_4_);}
	.st4{fill:url(#SVGID_5_);}
	.st5{fill:url(#SVGID_6_);}
	.st6{fill:url(#SVGID_7_);}
	.st7{fill:url(#SVGID_8_);}
	.st8{fill:url(#SVGID_9_);}
	.st9{fill:url(#SVGID_10_);}
	.st10{fill:url(#SVGID_11_);}
	.st11{fill:url(#SVGID_12_);}
	.st12{fill:#A1A1A1;}
	.st13{opacity:0.8;fill:url(#SVGID_13_);enable-background:new    ;}
	.st14{opacity:0.8;fill:url(#SVGID_14_);enable-background:new    ;}
	.st15{opacity:0.7;fill:url(#SVGID_15_);enable-background:new    ;}
	.st16{opacity:0.4;fill:url(#SVGID_16_);enable-background:new    ;}
	.st17{opacity:0.7;fill:url(#SVGID_17_);enable-background:new    ;}
	.st18{opacity:0.5;fill:url(#SVGID_18_);enable-background:new    ;}
	.st19{opacity:0.8;fill:url(#SVGID_19_);enable-background:new    ;}
	.st20{opacity:0.8;fill:url(#SVGID_20_);enable-background:new    ;}
	.st21{opacity:0.7;fill:url(#SVGID_21_);enable-background:new    ;}
	.st22{opacity:0.4;fill:url(#SVGID_22_);enable-background:new    ;}
	.st23{opacity:0.7;fill:url(#SVGID_23_);enable-background:new    ;}
	.st24{opacity:0.5;fill:url(#SVGID_24_);enable-background:new    ;}
	.st25{opacity:0.8;fill:url(#SVGID_25_);enable-background:new    ;}
	.st26{opacity:0.8;fill:url(#SVGID_26_);enable-background:new    ;}
	.st27{opacity:0.7;fill:url(#SVGID_27_);enable-background:new    ;}
	.st28{opacity:0.4;fill:url(#SVGID_28_);enable-background:new    ;}
	.st29{opacity:0.7;fill:url(#SVGID_29_);enable-background:new    ;}
	.st30{opacity:0.5;fill:url(#SVGID_30_);enable-background:new    ;}
	.st31{opacity:0.05;fill:#FFFFFF;enable-background:new    ;}
	.st32{opacity:0.3;fill:#FFFFFF;enable-background:new    ;}
	.st33{opacity:0.2;fill:#FFFFFF;enable-background:new    ;}
	.st34{fill:#FFFFFF;}
	.st35{fill:url(#SVGID_31_);}
	.st36{fill:url(#SVGID_32_);}
	.st37{fill:url(#SVGID_33_);}
	.st38{fill:url(#SVGID_34_);}
	.st39{fill:url(#SVGID_35_);}
	.st40{fill:url(#SVGID_36_);}
</style>
<g>
	<g>
		
			<linearGradient id="SVGID_1_" gradientUnits="userSpaceOnUse" x1="7.2326" y1="90.9178" x2="259.1553" y2="90.9178" gradientTransform="matrix(0.9999 -0.016 -0.016 -0.9999 1.2375 394.1337)">
			<stop  offset="0" style="stop-color:#39A6FF"/>
			<stop  offset="0.9944" style="stop-color:#4DF3F6"/>
		</linearGradient>
		
			<ellipse transform="matrix(0.9999 -0.016 0.016 0.9999 -4.8003 2.1659)" class="st0" cx="132.96" cy="301.09" rx="125.47" ry="80.18"/>
		
			<linearGradient id="SVGID_2_" gradientUnits="userSpaceOnUse" x1="0.3417" y1="89.4278" x2="266.0863" y2="89.4278" gradientTransform="matrix(0.9999 -0.016 -0.016 -0.9999 1.2138 394.1343)">
			<stop  offset="0" style="stop-color:#39A6FF"/>
			<stop  offset="0.9944" style="stop-color:#4DF3F6"/>
		</linearGradient>
		
			<ellipse transform="matrix(0.9999 -0.016 0.016 0.9999 -4.8242 2.1664)" class="st1" cx="132.98" cy="302.58" rx="132.63" ry="84.75"/>
		
			<linearGradient id="SVGID_3_" gradientUnits="userSpaceOnUse" x1="21.1301" y1="90.6878" x2="245.2579" y2="90.6878" gradientTransform="matrix(0.9999 -0.016 -0.016 -0.9999 1.2341 394.1337)">
			<stop  offset="0" style="stop-color:#39A6FF"/>
			<stop  offset="0.9944" style="stop-color:#4DF3F6"/>
		</linearGradient>
		
			<ellipse transform="matrix(0.9999 -0.016 0.016 0.9999 -4.804 2.1659)" class="st2" cx="132.96" cy="301.32" rx="110.61" ry="70.68"/>
	</g>
	<g>
		
			<linearGradient id="SVGID_4_" gradientUnits="userSpaceOnUse" x1="29.249" y1="321.7358" x2="199.4239" y2="321.7358" gradientTransform="matrix(1 0 0 -1 0 392)">
			<stop  offset="0" style="stop-color:#39A6FF"/>
			<stop  offset="1" style="stop-color:#15BCCD"/>
		</linearGradient>
		<path class="st3" d="M197.66,54.83c-14.35-8.61-30.7-13.42-47.18-15.49c-4.13-0.55-8.28-0.82-12.44-1.04
			c-4.16-0.12-8.32-0.18-12.47,0.03c-4.16,0.13-8.3,0.53-12.42,1c-4.11,0.56-8.23,1.16-12.28,2.06c-8.13,1.68-16.08,4.17-23.7,7.36
			c-3.81,1.6-7.51,3.46-11.12,5.46c-3.6,2.03-7.03,4.31-10.32,6.78c-6.55,4.95-12.33,10.95-16.55,17.88
			c-4.22,6.91-6.63,14.89-6.41,22.9c0.03,0.97-0.74,1.78-1.71,1.81s-1.78-0.74-1.81-1.71c0-0.01,0-0.02,0-0.03v-0.01
			c-0.03-4.36,0.62-8.71,1.89-12.86c1.26-4.15,3.13-8.08,5.42-11.72c4.6-7.27,10.75-13.39,17.59-18.38
			c6.84-5.02,14.37-9,22.17-12.16c7.83-3.12,15.94-5.5,24.2-7.06c4.12-0.84,8.29-1.38,12.45-1.87c4.18-0.39,8.36-0.72,12.56-0.78
			c4.19-0.13,8.38,0,12.57,0.19c4.18,0.29,8.36,0.63,12.5,1.26C167.15,40.83,183.47,45.96,197.66,54.83z"/>
	</g>
	<g>
		<g>
			
				<linearGradient id="SVGID_5_" gradientUnits="userSpaceOnUse" x1="28.24" y1="66.2942" x2="237.7558" y2="66.2942" gradientTransform="matrix(1 0 0 -1 0 392)">
				<stop  offset="0" style="stop-color:#1BC9DB"/>
				<stop  offset="1" style="stop-color:#15BBCC"/>
			</linearGradient>
			<path class="st4" d="M134.08,367.41c57.85-0.93,104.27-31.65,103.67-68.61l-0.06-14.82l-209.45,4.61l0.02,13.57
				C28.86,339.13,76.23,368.34,134.08,367.41z"/>
			
				<linearGradient id="SVGID_6_" gradientUnits="userSpaceOnUse" x1="28.2442" y1="105.09" x2="237.7458" y2="105.09" gradientTransform="matrix(1 0 0 -1 0 392)">
				<stop  offset="0" style="stop-color:#2CDBE8"/>
				<stop  offset="1" style="stop-color:#2CE9ED"/>
			</linearGradient>
			<path class="st5" d="M131.92,219.98c-57.85,0.93-104.27,31.65-103.67,68.61c0.59,36.96,47.97,66.18,105.82,65.25
				s104.27-31.65,103.67-68.61C237.14,248.27,189.77,219.05,131.92,219.98z"/>
		</g>
		<g>
			
				<linearGradient id="SVGID_7_" gradientUnits="userSpaceOnUse" x1="46.78" y1="83.6662" x2="219.2147" y2="83.6662" gradientTransform="matrix(1 0 0 -1 0 392)">
				<stop  offset="0" style="stop-color:#0EA6B1"/>
				<stop  offset="1" style="stop-color:#18C3B3"/>
			</linearGradient>
			<path class="st6" d="M133.89,342.66c47.61-0.76,85.81-26.04,85.32-56.47l-0.05-12.2l-172.38,3.79l0.02,11.17
				C47.29,319.38,86.28,343.42,133.89,342.66z"/>
			
				<linearGradient id="SVGID_8_" gradientUnits="userSpaceOnUse" x1="46.7853" y1="115.595" x2="219.2047" y2="115.595" gradientTransform="matrix(1 0 0 -1 0 392)">
				<stop  offset="0" style="stop-color:#18C3B3"/>
				<stop  offset="1" style="stop-color:#0EA6B1"/>
			</linearGradient>
			<path class="st7" d="M132.11,221.32c-47.61,0.76-85.81,26.04-85.32,56.47c0.49,30.42,39.48,54.47,87.09,53.7
				c47.61-0.76,85.81-26.04,85.32-56.47C218.71,244.6,179.72,220.55,132.11,221.32z"/>
		</g>
	</g>
	<g>
		
			<linearGradient id="SVGID_9_" gradientUnits="userSpaceOnUse" x1="132.46" y1="81.38" x2="132.46" y2="379.9581" gradientTransform="matrix(1 0 0 -1 0 392)">
			<stop  offset="0" style="stop-color:#A1BEBF"/>
			<stop  offset="0.2879" style="stop-color:#A4C0C1"/>
			<stop  offset="0.465" style="stop-color:#ACC7C9"/>
			<stop  offset="0.6122" style="stop-color:#BBD3D5"/>
			<stop  offset="0.7422" style="stop-color:#CFE3E7"/>
			<stop  offset="0.7784" style="stop-color:#D6E9ED"/>
			<stop  offset="1" style="stop-color:#A1BEBF"/>
		</linearGradient>
		<path class="st8" d="M174.63,57.37L98.14,13.21c-2.9-1.67-6.16-1.45-8.69,0.03l0,0l-10.58,6.14l1.73,2.96l4.56-0.3v220.41
			c0,6.72,3.59,12.93,9.41,16.3l77.69,44.85l-0.82,0.37l-2.3,2.78l1.25,3.87l11.11-6.4l-0.01-0.01c2.64-1.42,4.56-4.18,4.56-7.61
			V77.19C186.07,69.01,181.71,61.46,174.63,57.37z"/>
		
			<linearGradient id="SVGID_10_" gradientUnits="userSpaceOnUse" x1="74.55" y1="335.5812" x2="175.45" y2="335.5812" gradientTransform="matrix(1 0 0 -1 0 392)">
			<stop  offset="0" style="stop-color:#CADEE0"/>
			<stop  offset="1" style="stop-color:#F8FEFF"/>
		</linearGradient>
		<path class="st9" d="M164.01,63.53L87.52,19.37c-5.77-3.33-12.97,0.83-12.97,7.49v9.52l100.9,58.26V83.35
			C175.45,75.17,171.09,67.62,164.01,63.53z"/>
		
			<linearGradient id="SVGID_11_" gradientUnits="userSpaceOnUse" x1="125" y1="93.46" x2="125" y2="355.62" gradientTransform="matrix(1 0 0 -1 0 392)">
			<stop  offset="0" style="stop-color:#16BDCE"/>
			<stop  offset="1" style="stop-color:#16BDCE"/>
		</linearGradient>
		<polygon class="st10" points="175.45,94.64 74.55,36.38 74.55,240.28 175.45,298.54 		"/>
		
			<linearGradient id="SVGID_12_" gradientUnits="userSpaceOnUse" x1="74.56" y1="116.1588" x2="175.46" y2="116.1588" gradientTransform="matrix(1 0 0 -1 0 392)">
			<stop  offset="0" style="stop-color:#CADEE0"/>
			<stop  offset="1" style="stop-color:#F8FEFF"/>
		</linearGradient>
		<path class="st11" d="M83.96,264.9l78.53,45.34c5.76,3.33,12.97-0.83,12.97-7.49v-4.22l-100.9-58.26v8.33
			C74.55,255.33,78.13,261.54,83.96,264.9z"/>
		<path class="st12" d="M121.42,50.67l12.13,7c1.26,0.73,2.04,2.07,2.04,3.53l0,0c0,0.88-0.96,1.43-1.72,0.99L121.41,55
			c-1.16-0.67-1.87-1.91-1.87-3.25l0,0C119.53,50.79,120.58,50.18,121.42,50.67z"/>
	</g>
	<g>
		<g>
			<g>
				
					<linearGradient id="SVGID_13_" gradientUnits="userSpaceOnUse" x1="84.87" y1="249.02" x2="84.87" y2="280.8" gradientTransform="matrix(1 0 0 -1 0 392)">
					<stop  offset="0" style="stop-color:#3EC9FF"/>
					<stop  offset="1" style="stop-color:#E257FF"/>
				</linearGradient>
				<polygon class="st13" points="82.58,113.85 82.58,142.98 87.16,140.33 87.16,111.2 				"/>
				
					<linearGradient id="SVGID_14_" gradientUnits="userSpaceOnUse" x1="82.58" y1="228.505" x2="162.84" y2="228.505" gradientTransform="matrix(1 0 0 -1 0 392)">
					<stop  offset="0" style="stop-color:#3EC9FF"/>
					<stop  offset="1" style="stop-color:#E257FF"/>
				</linearGradient>
				<polygon class="st14" points="158.26,186.67 162.84,184.02 87.16,140.32 82.58,142.98 				"/>
				
					<linearGradient id="SVGID_15_" gradientUnits="userSpaceOnUse" x1="87.16" y1="244.39" x2="162.84" y2="244.39" gradientTransform="matrix(1 0 0 -1 0 392)">
					<stop  offset="0" style="stop-color:#3EC9FF"/>
					<stop  offset="1" style="stop-color:#E257FF"/>
				</linearGradient>
				<polygon class="st15" points="87.16,111.2 87.16,140.32 162.84,184.02 162.84,154.89 				"/>
				
					<linearGradient id="SVGID_16_" gradientUnits="userSpaceOnUse" x1="82.58" y1="241.74" x2="158.26" y2="241.74" gradientTransform="matrix(1 0 0 -1 0 392)">
					<stop  offset="0" style="stop-color:#3EC9FF"/>
					<stop  offset="1" style="stop-color:#E257FF"/>
				</linearGradient>
				<polygon class="st16" points="158.26,157.54 82.58,113.85 82.58,142.98 158.26,186.67 				"/>
				
					<linearGradient id="SVGID_17_" gradientUnits="userSpaceOnUse" x1="82.58" y1="257.63" x2="162.84" y2="257.63" gradientTransform="matrix(1 0 0 -1 0 392)">
					<stop  offset="0" style="stop-color:#3EC9FF"/>
					<stop  offset="1" style="stop-color:#E257FF"/>
				</linearGradient>
				<polygon class="st17" points="158.26,157.54 162.84,154.89 87.16,111.2 82.58,113.85 				"/>
				
					<linearGradient id="SVGID_18_" gradientUnits="userSpaceOnUse" x1="160.55" y1="205.33" x2="160.55" y2="237.11" gradientTransform="matrix(1 0 0 -1 0 392)">
					<stop  offset="0" style="stop-color:#3EC9FF"/>
					<stop  offset="1" style="stop-color:#E257FF"/>
				</linearGradient>
				<polygon class="st18" points="158.26,157.54 158.26,186.67 162.84,184.02 162.84,154.89 				"/>
			</g>
			<g>
				
					<linearGradient id="SVGID_19_" gradientUnits="userSpaceOnUse" x1="84.87" y1="205.29" x2="84.87" y2="237.07" gradientTransform="matrix(1 0 0 -1 0 392)">
					<stop  offset="0" style="stop-color:#3EC9FF"/>
					<stop  offset="1" style="stop-color:#E257FF"/>
				</linearGradient>
				<polygon class="st19" points="82.58,157.58 82.58,186.71 87.16,184.06 87.16,154.93 				"/>
				
					<linearGradient id="SVGID_20_" gradientUnits="userSpaceOnUse" x1="82.58" y1="184.775" x2="162.84" y2="184.775" gradientTransform="matrix(1 0 0 -1 0 392)">
					<stop  offset="0" style="stop-color:#3EC9FF"/>
					<stop  offset="1" style="stop-color:#E257FF"/>
				</linearGradient>
				<polygon class="st20" points="158.26,230.4 162.84,227.75 87.16,184.05 82.58,186.71 				"/>
				
					<linearGradient id="SVGID_21_" gradientUnits="userSpaceOnUse" x1="87.16" y1="200.66" x2="162.84" y2="200.66" gradientTransform="matrix(1 0 0 -1 0 392)">
					<stop  offset="0" style="stop-color:#3EC9FF"/>
					<stop  offset="1" style="stop-color:#E257FF"/>
				</linearGradient>
				<polygon class="st21" points="87.16,154.93 87.16,184.05 162.84,227.75 162.84,198.62 				"/>
				
					<linearGradient id="SVGID_22_" gradientUnits="userSpaceOnUse" x1="82.58" y1="198.01" x2="158.26" y2="198.01" gradientTransform="matrix(1 0 0 -1 0 392)">
					<stop  offset="0" style="stop-color:#3EC9FF"/>
					<stop  offset="1" style="stop-color:#E257FF"/>
				</linearGradient>
				<polygon class="st22" points="158.26,201.27 82.58,157.58 82.58,186.71 158.26,230.4 				"/>
				
					<linearGradient id="SVGID_23_" gradientUnits="userSpaceOnUse" x1="82.58" y1="213.9" x2="162.84" y2="213.9" gradientTransform="matrix(1 0 0 -1 0 392)">
					<stop  offset="0" style="stop-color:#3EC9FF"/>
					<stop  offset="1" style="stop-color:#E257FF"/>
				</linearGradient>
				<polygon class="st23" points="158.26,201.27 162.84,198.62 87.16,154.93 82.58,157.58 				"/>
				
					<linearGradient id="SVGID_24_" gradientUnits="userSpaceOnUse" x1="160.55" y1="161.6" x2="160.55" y2="193.38" gradientTransform="matrix(1 0 0 -1 0 392)">
					<stop  offset="0" style="stop-color:#3EC9FF"/>
					<stop  offset="1" style="stop-color:#E257FF"/>
				</linearGradient>
				<polygon class="st24" points="158.26,201.27 158.26,230.4 162.84,227.75 162.84,198.62 				"/>
			</g>
			<g>
				
					<linearGradient id="SVGID_25_" gradientUnits="userSpaceOnUse" x1="97.48" y1="154.35" x2="97.48" y2="186.13" gradientTransform="matrix(1 0 0 -1 0 392)">
					<stop  offset="0" style="stop-color:#FFDA40"/>
					<stop  offset="1" style="stop-color:#FF5AB8"/>
				</linearGradient>
				<polygon class="st25" points="95.19,208.52 95.19,237.65 99.77,235 99.77,205.87 				"/>
				
					<linearGradient id="SVGID_26_" gradientUnits="userSpaceOnUse" x1="95.19" y1="141.125" x2="150.22" y2="141.125" gradientTransform="matrix(1 0 0 -1 0 392)">
					<stop  offset="0" style="stop-color:#FFDA40"/>
					<stop  offset="1" style="stop-color:#FF5AB8"/>
				</linearGradient>
				<polygon class="st26" points="145.64,266.76 150.22,264.11 99.77,234.99 95.19,237.65 				"/>
				
					<linearGradient id="SVGID_27_" gradientUnits="userSpaceOnUse" x1="99.77" y1="157.01" x2="150.22" y2="157.01" gradientTransform="matrix(1 0 0 -1 0 392)">
					<stop  offset="0" style="stop-color:#FFDA40"/>
					<stop  offset="1" style="stop-color:#FF5AB8"/>
				</linearGradient>
				<polygon class="st27" points="99.77,205.87 99.77,234.99 150.22,264.11 150.22,234.98 				"/>
				
					<linearGradient id="SVGID_28_" gradientUnits="userSpaceOnUse" x1="95.19" y1="154.36" x2="145.64" y2="154.36" gradientTransform="matrix(1 0 0 -1 0 392)">
					<stop  offset="0" style="stop-color:#FFDA40"/>
					<stop  offset="1" style="stop-color:#FF5AB8"/>
				</linearGradient>
				<polygon class="st28" points="145.64,237.63 95.19,208.52 95.19,237.65 145.64,266.76 				"/>
				
					<linearGradient id="SVGID_29_" gradientUnits="userSpaceOnUse" x1="95.19" y1="170.25" x2="150.22" y2="170.25" gradientTransform="matrix(1 0 0 -1 0 392)">
					<stop  offset="0" style="stop-color:#FFDA40"/>
					<stop  offset="1" style="stop-color:#FF5AB8"/>
				</linearGradient>
				<polygon class="st29" points="145.64,237.63 150.22,234.98 99.77,205.87 95.19,208.52 				"/>
				
					<linearGradient id="SVGID_30_" gradientUnits="userSpaceOnUse" x1="147.93" y1="125.24" x2="147.93" y2="157.02" gradientTransform="matrix(1 0 0 -1 0 392)">
					<stop  offset="0" style="stop-color:#FFDA40"/>
					<stop  offset="1" style="stop-color:#FF5AB8"/>
				</linearGradient>
				<polygon class="st30" points="145.64,237.63 145.64,266.76 150.22,264.11 150.22,234.98 				"/>
			</g>
		</g>
		<g>
			<g>
				<path class="st31" d="M113.37,103.2c5.1,11.27,15.07,17.76,22.26,14.5c7.2-3.26,8.9-15.03,3.81-26.3
					c-5.1-11.27-15.07-17.76-22.26-14.5C109.98,80.16,108.27,91.94,113.37,103.2z"/>
				
					<ellipse transform="matrix(0.9111 -0.4122 0.4122 0.9111 -31.6104 56.9576)" class="st32" cx="116.23" cy="101.76" rx="14.31" ry="22.39"/>
				<path class="st33" d="M139.44,91.41c-5.1-11.27-15.07-17.76-22.26-14.5L107,81.36c7.2-3.26,17.17,3.24,22.26,14.5
					c5.1,11.27,3.39,23.04-3.81,26.3l10.17-4.46C142.83,114.45,144.54,102.67,139.44,91.41z"/>
			</g>
			<path class="st34" d="M118.71,103.24c1.74-0.22,2.91-1.75,2.91-4.27c0-3.85-2.72-8.54-6.09-10.47c-3.36-1.93-6.09-0.37-6.09,3.48
				c0,2.52,1.17,5.39,2.91,7.61c-3.31-1.81-5.98-0.25-5.98,3.57v4.02l18.31,10.51v-4.02C124.69,109.86,122.03,105.23,118.71,103.24z
				"/>
		</g>
		<g>
			<path class="st34" d="M99.47,133.34l1.15,0.66l5.82,13.69l0.03,0.02v-10.32l0.89,0.52v11.79l-1.15-0.66l-5.82-13.69l-0.03-0.02
				v10.33l-0.89-0.52V133.34z"/>
			<path class="st34" d="M114.26,141.9l0.92,0.53l4.02,14.12l-1-0.58l-1.04-3.73l-5.06-2.93l-1.08,2.51l-0.93-0.54L114.26,141.9z
				 M114.68,143.35l-2.23,5.17l4.39,2.54L114.68,143.35z"/>
			<path class="st34" d="M121.84,146.29l1.34,0.77l3.48,11.91l3.48-7.88l1.27,0.73v11.79l-0.89-0.52V152.7l-0.03-0.02l-3.65,8.28
				l-0.39-0.23l-3.7-12.53l-0.03-0.02v10.39l-0.89-0.52L121.84,146.29L121.84,146.29z"/>
			<path class="st34" d="M135.3,154.08l5.85,3.38v1l-4.96-2.87v4.2l4.65,2.69v1l-4.65-2.69v4.6l5.17,2.99v1l-6.06-3.51V154.08z"/>
		</g>
		<g>
			<path class="st34" d="M94.03,178.8c0,1.41-0.77,2.11-1.73,1.56c-0.95-0.55-1.73-2.14-1.73-3.55s0.77-2.11,1.73-1.56
				S94.03,177.39,94.03,178.8z"/>
			
				<ellipse transform="matrix(0.9478 -0.319 0.319 0.9478 -52.8187 41.1858)" class="st34" cx="99.33" cy="181.85" rx="1.55" ry="2.84"/>
			<path class="st34" d="M108.09,186.88c0,1.41-0.77,2.11-1.73,1.56c-0.95-0.55-1.73-2.14-1.73-3.55s0.77-2.11,1.73-1.56
				C107.31,183.88,108.09,185.47,108.09,186.88z"/>
			<path class="st34" d="M115.12,190.92c0,1.41-0.77,2.11-1.73,1.56c-0.95-0.55-1.73-2.14-1.73-3.55s0.77-2.11,1.73-1.56
				C114.34,187.92,115.12,189.51,115.12,190.92z"/>
			
				<ellipse transform="matrix(0.9478 -0.319 0.319 0.9478 -55.5858 48.5477)" class="st34" cx="120.43" cy="193.98" rx="1.55" ry="2.84"/>
			
				<ellipse transform="matrix(0.9478 -0.319 0.319 0.9478 -56.5073 51.0012)" class="st34" cx="127.46" cy="198.02" rx="1.55" ry="2.84"/>
			
				<ellipse transform="matrix(0.9478 -0.319 0.319 0.9478 -57.4302 53.4519)" class="st34" cx="134.48" cy="202.06" rx="1.55" ry="2.84"/>
			<path class="st34" d="M143.23,207.08c0,1.41-0.77,2.11-1.73,1.56c-0.95-0.55-1.73-2.14-1.73-3.55s0.77-2.11,1.73-1.56
				C142.46,204.09,143.23,205.67,143.23,207.08z"/>
			<path class="st34" d="M150.26,211.13c0,1.41-0.77,2.11-1.73,1.56c-0.95-0.55-1.73-2.14-1.73-3.55s0.77-2.11,1.73-1.56
				C149.49,208.13,150.26,209.72,150.26,211.13z"/>
		</g>
		<g>
			<path class="st34" d="M99.77,222.5l2.18,1.26c1.59,0.92,1.99,2.46,1.99,3.53c0,1.08-0.59,1.76-1.53,1.36l1.76,4.9l-1.05-0.61
				l-1.58-4.66l-0.94-0.54v3.75L99.76,231v-8.5H99.77z M100.62,226.73l1.1,0.64c0.67,0.38,1.33,0.55,1.33-0.6
				c0-1.15-0.67-1.75-1.33-2.14l-1.1-0.64V226.73z"/>
			<path class="st34" d="M105.57,225.85l4.01,2.32v1.08l-3.17-1.83v2.53l2.95,1.7v1.08l-2.95-1.7v2.73l3.32,1.92v1.08l-4.17-2.41
				L105.57,225.85L105.57,225.85z"/>
			<path class="st34" d="M116.66,236v4.19c-0.6,0.16-1.6-0.14-2.35-0.58c-2.1-1.22-3.32-3.97-3.32-6.39c0-2.52,1.34-3.69,3.24-2.6
				c1.14,0.66,1.83,1.48,2.31,2.44l-0.6,0.53c-0.51-0.97-1.1-1.53-1.72-1.89c-1.42-0.82-2.34,0.17-2.34,2.03
				c0,1.92,1.04,3.99,2.41,4.78c0.59,0.34,1.15,0.51,1.53,0.44v-2.36l-1.38-0.8v-1.08L116.66,236z"/>
			<path class="st34" d="M118.64,233.4l0.84,0.49v8.5l-0.84-0.49V233.4z"/>
			<path class="st34" d="M121.7,241.89c0.3,0.8,0.82,1.38,1.32,1.67c0.55,0.32,1.24,0.23,1.24-0.7c0-1.96-3.06-2.51-3.06-5.83
				c0-1,0.61-2.02,2.1-1.16c0.68,0.39,1.32,0.96,1.79,2.01l-0.68,0.46c-0.21-0.57-0.62-1.1-1.1-1.38c-0.93-0.54-1.21,0.07-1.21,0.6
				c0,2.15,3.06,2.63,3.06,5.69c0,1.65-0.96,2.07-2.16,1.38c-0.8-0.46-1.56-1.27-1.98-2.32L121.7,241.89z"/>
			<path class="st34" d="M128.13,239.96l-2-1.15v-1.08l4.84,2.8v1.08l-2-1.16v7.42l-0.84-0.49V239.96z"/>
			<path class="st34" d="M132.31,241.3l4.01,2.32v1.08l-3.17-1.83v2.53l2.95,1.7v1.08l-2.95-1.7v2.73l3.32,1.92v1.08l-4.16-2.41
				V241.3z"/>
			<path class="st34" d="M138.11,244.65l2.18,1.26c1.59,0.92,1.99,2.46,1.99,3.53c0,1.08-0.59,1.76-1.53,1.36l1.76,4.9l-1.05-0.61
				l-1.58-4.66l-0.94-0.54v3.75l-0.84-0.49v-8.5H138.11z M138.95,248.88l1.1,0.64c0.67,0.39,1.33,0.55,1.33-0.6
				s-0.67-1.75-1.33-2.14l-1.1-0.64V248.88z"/>
		</g>
	</g>
	<g>
		
			<linearGradient id="SVGID_31_" gradientUnits="userSpaceOnUse" x1="132.9922" y1="63.043" x2="132.9922" y2="390" gradientTransform="matrix(1 0 0 -1 0 392)">
			<stop  offset="0" style="stop-color:#16BDCE"/>
			<stop  offset="1" style="stop-color:#30EFF2;stop-opacity:0"/>
		</linearGradient>
		<path class="st35" d="M50.76,277.72c0.47,29.02,37.66,51.95,83.07,51.22s81.85-24.84,81.39-53.86
			C215.15,184.39,215.07,93.69,215,3C160.33,2.67,105.67,2.33,51,2C50.92,93.91,50.84,185.81,50.76,277.72z"/>
		
			<linearGradient id="SVGID_32_" gradientUnits="userSpaceOnUse" x1="133.0122" y1="68.1337" x2="133.0122" y2="206.05" gradientTransform="matrix(1 0 0 -1 0 392)">
			<stop  offset="0" style="stop-color:#16BDCE"/>
			<stop  offset="0.1153" style="stop-color:#1AD2DE;stop-opacity:0.8847"/>
			<stop  offset="0.2637" style="stop-color:#1EE6ED;stop-opacity:0.7363"/>
			<stop  offset="0.4337" style="stop-color:#21F4F7;stop-opacity:0.5663"/>
			<stop  offset="0.642" style="stop-color:#23FDFD;stop-opacity:0.358"/>
			<stop  offset="1" style="stop-color:#23FFFF;stop-opacity:0"/>
		</linearGradient>
		<path class="st36" d="M54.25,274.79c0.45,27.79,36.07,49.76,79.57,49.06s78.4-23.79,77.95-51.59v-86.31H54.25V274.79z"/>
		
			<linearGradient id="SVGID_33_" gradientUnits="userSpaceOnUse" x1="132.8927" y1="42.4589" x2="132.8927" y2="415.44" gradientTransform="matrix(1 0 0 -1 0 392)">
			<stop  offset="0" style="stop-color:#16BCCD"/>
			<stop  offset="1.504123e-03" style="stop-color:#17BDCE;stop-opacity:0.997"/>
			<stop  offset="0.0606" style="stop-color:#2AD5E0;stop-opacity:0.8788"/>
			<stop  offset="0.127" style="stop-color:#39E8EE;stop-opacity:0.7459"/>
			<stop  offset="0.2051" style="stop-color:#43F5F8;stop-opacity:0.5899"/>
			<stop  offset="0.3047" style="stop-color:#49FDFD;stop-opacity:0.3905"/>
			<stop  offset="0.5" style="stop-color:#4BFFFF;stop-opacity:0"/>
		</linearGradient>
		<path class="st37" d="M30.5,285.74c0.58,36.13,46.89,64.69,103.44,63.78s101.92-30.93,101.34-67.07V-23.44H30.5V285.74z"/>
	</g>
	<g>
		<g>
			
				<linearGradient id="SVGID_34_" gradientUnits="userSpaceOnUse" x1="26.6691" y1="157.9169" x2="239.2878" y2="157.9169" gradientTransform="matrix(1 0 0 -1 0 392)">
				<stop  offset="0" style="stop-color:#39A6FF"/>
				<stop  offset="1" style="stop-color:#11F3F4"/>
			</linearGradient>
			<path class="st38" d="M30.19,226c0.08,3.31,0.51,6.61,1.28,9.84c0.84,3.21,2.04,6.33,3.5,9.33c1.53,2.97,3.33,5.81,5.35,8.49
				c0.51,0.67,1.06,1.3,1.59,1.96l0.8,0.98l0.85,0.93l1.71,1.86l1.81,1.77c9.82,9.33,22.05,16.01,34.87,20.6
				c12.87,4.6,26.45,7.19,40.13,8.04c13.68,0.84,27.49,0,40.95-2.64c13.44-2.66,26.62-7.08,38.58-13.84
				c5.97-3.37,11.65-7.29,16.69-11.94c2.56-2.28,4.89-4.81,7.08-7.43c2.18-2.65,4.08-5.5,5.8-8.46c1.64-3.01,3.01-6.15,4.06-9.41
				c0.97-3.28,1.61-6.66,1.87-10.07c0.19-3.42,0-6.86-0.54-10.24c-0.61-3.38-1.61-6.67-2.91-9.85c-1.35-3.16-3.04-6.17-4.93-9.04
				c-1.98-2.81-4.12-5.52-6.51-8.01c-4.75-5-10.25-9.24-16.08-12.93c5.86,3.63,11.42,7.82,16.24,12.78c2.42,2.47,4.6,5.16,6.62,7.97
				c1.93,2.87,3.67,5.88,5.06,9.05c1.34,3.2,2.39,6.52,3.05,9.93c0.59,3.42,0.82,6.9,0.66,10.38c-0.23,3.47-0.84,6.91-1.8,10.26
				c-1.03,3.32-2.39,6.54-4.02,9.61c-1.71,3.03-3.62,5.95-5.8,8.66c-2.2,2.69-4.53,5.28-7.1,7.62c-5.06,4.77-10.78,8.8-16.78,12.28
				c-12.03,6.97-25.31,11.59-38.88,14.42c-13.6,2.82-27.55,3.81-41.43,3.11c-13.87-0.72-27.7-3.19-40.88-7.75
				c-6.58-2.29-13.02-5.06-19.1-8.53c-1.51-0.88-3.04-1.73-4.5-2.7c-0.74-0.48-1.48-0.93-2.21-1.43l-2.15-1.52
				c-1.45-0.98-2.79-2.13-4.19-3.19l-2-1.72c-0.67-0.57-1.33-1.15-1.96-1.77l-1.91-1.83l-1.82-1.93l-0.9-0.97l-0.85-1.02
				c-0.56-0.68-1.15-1.35-1.69-2.04c-2.16-2.8-4.1-5.79-5.77-8.94c-1.6-3.19-2.92-6.52-3.86-9.98c-0.88-3.48-1.38-7.04-1.5-10.63
				c-0.03-0.97,0.73-1.79,1.7-1.82c0.97-0.03,1.79,0.73,1.82,1.7v0.02L30.19,226z"/>
		</g>
		<g>
			
				<linearGradient id="SVGID_35_" gradientUnits="userSpaceOnUse" x1="132.2691" y1="234.5546" x2="239.271" y2="234.5546" gradientTransform="matrix(1 0 0 -1 0 392)">
				<stop  offset="0" style="stop-color:#39A6FF"/>
				<stop  offset="1" style="stop-color:#11F3F4"/>
			</linearGradient>
			<path class="st39" d="M134.02,189.03c11.23-0.07,22.47-1.26,33.47-3.65c5.47-1.29,10.93-2.71,16.22-4.65
				c2.68-0.87,5.25-2.01,7.87-3.05c1.29-0.56,2.55-1.18,3.83-1.77l1.91-0.89l1.86-0.99c5.02-2.56,9.78-5.62,14.25-9.03l1.67-1.3
				c0.56-0.42,1.11-0.87,1.63-1.35l3.16-2.81l2.96-3.02c0.51-0.49,0.96-1.03,1.43-1.56c0.47-0.53,0.93-1.06,1.37-1.61
				c3.59-4.34,6.58-9.21,8.67-14.46s3.22-10.9,3.21-16.58c0.16,5.68-0.83,11.39-2.8,16.74c-1.96,5.36-4.87,10.36-8.39,14.86
				c-0.43,0.57-0.88,1.12-1.34,1.67c-0.46,0.55-0.91,1.11-1.41,1.62l-2.92,3.14l-3.13,2.93c-0.51,0.5-1.05,0.97-1.61,1.41
				l-1.66,1.36c-4.45,3.59-9.2,6.82-14.23,9.55l-1.87,1.06l-1.92,0.96c-1.28,0.63-2.55,1.29-3.85,1.9
				c-2.63,1.13-5.22,2.35-7.92,3.31c-5.33,2.11-10.84,3.7-16.37,5.16c-11.13,2.72-22.55,4.23-34.02,4.6
				c-0.97,0.03-1.79-0.73-1.82-1.7c-0.03-0.97,0.73-1.79,1.7-1.82c0.01,0,0.02,0,0.04,0L134.02,189.03z"/>
		</g>
		<g>
			
				<linearGradient id="SVGID_36_" gradientUnits="userSpaceOnUse" x1="74.3271" y1="220.2964" x2="26.6743" y2="220.2964" gradientTransform="matrix(1 0 0 -1 0 392)">
				<stop  offset="0" style="stop-color:#39A6FF"/>
				<stop  offset="1" style="stop-color:#11F3F4"/>
			</linearGradient>
			<path class="st40" d="M71.82,223.61c-5.09-2.48-10.02-5.28-14.71-8.46c-4.68-3.19-9.05-6.85-13.02-10.91
				c-3.95-4.07-7.47-8.59-10.24-13.57c-2.77-4.97-4.75-10.4-5.65-16.02c-1.88-11.27,1.03-23.02,7.21-32.38
				c6.12-9.47,14.85-16.92,24.39-22.64c-9.39,5.96-17.87,13.63-23.65,23.1c-5.84,9.38-8.3,20.85-6.22,31.62
				c1,5.38,3.04,10.53,5.82,15.23c2.78,4.71,6.28,8.97,10.19,12.79c3.93,3.81,8.24,7.24,12.86,10.21c4.62,2.96,9.48,5.55,14.48,7.83
				l0.02,0.01c0.88,0.4,1.27,1.45,0.87,2.33c-0.4,0.88-1.45,1.27-2.33,0.87C71.85,223.63,71.84,223.62,71.82,223.61z"/>
		</g>
	</g>
</g>
</svg>
